HIERARCHY
ROOT Hips
{
    OFFSET 0.000000 0.000000 0.000000
    CHANNELS 6 Xposition Yposition Zposition Zrotation Xrotation Yrotation
    JOINT Spine
    {
        OFFSET -0.000000 7.979263 0.000000
        CHANNELS 3 Zrotation Xrotation Yrotation
        JOINT Spine1
        {
            OFFSET -0.000000 24.719021 0.000000
            CHANNELS 3 Zrotation Xrotation Yrotation
            JOINT Neck
            {
                OFFSET -0.000000 24.617504 2.237955
                CHANNELS 3 Zrotation Xrotation Yrotation
                JOINT Head
                {
                    OFFSET -0.000000 13.623132 -1.946162
                    CHANNELS 3 Zrotation Xrotation Yrotation
                    End Site
                    {
                        OFFSET -0.000000 24.327021 0.000000
                    }
                }
            }
            JOINT LeftShoulder
            {
                OFFSET 3.885773 23.018444 -0.302444
                CHANNELS 3 Zrotation Xrotation Yrotation
                JOINT LeftArm
                {
                    OFFSET 10.447750 0.000000 0.000000
                    CHANNELS 3 Zrotation Xrotation Yrotation
                    JOINT LeftForeArm
                    {
                        OFFSET 29.090096 0.000000 0.000000
                        CHANNELS 3 Zrotation Xrotation Yrotation
                        JOINT LeftHand
                        {
                            OFFSET 28.893339 0.000000 0.000000
                            CHANNELS 3 Zrotation Xrotation Yrotation
                            End Site
                            {
                                OFFSET 14.596213 0.000000 0.000000
                            }
                        }
                    }
                }
            }
            JOINT RightShoulder
            {
                OFFSET -3.864586 23.018444 -0.302444
                CHANNELS 3 Zrotation Xrotation Yrotation
                JOINT RightArm
                {
                    OFFSET -10.447750 0.000000 0.000000
                    CHANNELS 3 Zrotation Xrotation Yrotation
                    JOINT RightForeArm
                    {
                        OFFSET -29.090096 0.000000 0.000000
                        CHANNELS 3 Zrotation Xrotation Yrotation
                        JOINT RightHand
                        {
                            OFFSET -28.893339 0.000000 0.000000
                            CHANNELS 3 Zrotation Xrotation Yrotation
                            End Site
                            {
                                OFFSET -14.596213 0.000000 0.000000
                            }
                        }
                    }
                }
            }
        }
    }
    JOINT LeftUpLeg
    {
        OFFSET 9.730808 0.000000 0.000000
        CHANNELS 3 Zrotation Xrotation Yrotation
        JOINT LeftLeg
        {
            OFFSET -0.000000 -34.800129 0.000000
            CHANNELS 3 Zrotation Xrotation Yrotation
            JOINT LeftFoot
            {
                OFFSET -0.000000 -44.597416 0.000000
                CHANNELS 3 Zrotation Xrotation Yrotation
                JOINT LeftToeBase
                {
                    OFFSET -0.000000 -6.325025 14.596213
                    CHANNELS 3 Zrotation Xrotation Yrotation
                    End Site
                    {
                        OFFSET -0.000000 0.000000 3.892323
                    }
                }
            }
        }
    }
    JOINT RightUpLeg
    {
        OFFSET -9.730808 0.000000 0.000000
        CHANNELS 3 Zrotation Xrotation Yrotation
        JOINT RightLeg
        {
            OFFSET -0.000000 -34.800129 0.000000
            CHANNELS 3 Zrotation Xrotation Yrotation
            JOINT RightFoot
            {
                OFFSET -0.000000 -44.597416 0.000000
                CHANNELS 3 Zrotation Xrotation Yrotation
                JOINT RightToeBase
                {
                    OFFSET -0.000000 -6.325025 14.596213
                    CHANNELS 3 Zrotation Xrotation Yrotation
                    End Site
                    {
                        OFFSET -0.000000 0.000000 3.892323
                    }
                }
            }
        }
    }
}
MOTION
Frames:    6
Frame Time:    0.008333
40.586178    88.891914    31.893562    -4.039784    -3.767780    89.957985    6.586114    -10.387170    -0.601379    -1.487826    -6.055487    -1.279405    -7.154534    27.332174    6.692662    8.252688    3.475367    7.119295    5.878580    7.565423    -10.948060    -15.316316    10.277803    13.504111    2.421169    -4.424278    2.793457    -6.315951    -4.407651    -1.372640    -9.733879    5.684794    4.763144    15.015336    11.197941    5.302137    -1.524635    -1.679600    -6.792830    0.682933    -1.755148    2.507679    3.648779    -0.140785    -5.875814    0.194973    -0.015066    13.235375    -3.428745    6.588779    2.893345    0.000000    0.000000    0.000000    5.634876    1.022461    1.059416    0.527171    0.411504    -6.116572    2.644695    7.654379    -4.292801    0.000000    0.000000    0.000000    
40.584980    88.891617    31.898005    -4.042319    -3.767466    89.966400    6.597720    -10.395301    -0.595112    -1.509273    -6.042590    -1.275578    -7.143350    27.316336    6.680494    8.207557    3.496183    7.102451    5.895594    7.550002    -10.939583    -15.302756    10.258819    13.497972    2.408808    -4.413214    2.801819    -6.370898    -4.395538    -1.377155    -9.665310    5.652867    4.739677    14.911366    11.255357    5.319496    -1.547503    -1.549234    -6.812798    0.981186    -1.618393    2.680376    3.651442    -0.151553    -5.873546    0.194311    -0.004961    13.215902    -3.444999    6.583754    2.909826    0.000000    0.000000    0.000000    5.634148    1.015918    1.048252    0.531462    0.422516    -6.101985    2.629175    7.640676    -4.293543    0.000000    0.000000    0.000000    
40.584122    88.890419    31.902431    -4.038140    -3.769676    89.977753    6.609135    -10.406252    -0.593189    -1.519454    -5.994788    -1.275236    -7.173165    27.281244    6.668386    8.199547    3.482578    7.089242    5.912500    7.497757    -10.904352    -15.313703    10.284187    13.489073    2.407141    -4.389544    2.797537    -6.422592    -4.369823    -1.400372    -9.699045    5.608110    4.725933    14.928041    11.306536    5.331675    -1.515774    -1.665697    -6.804489    0.645046    -1.741339    2.570567    3.658563    -0.155090    -5.883096    0.190043    0.002983    13.198846    -3.433654    6.570838    2.916289    0.000000    0.000000    0.000000    5.638047    1.014430    1.055299    0.534698    0.431729    -6.121294    2.643539    7.638770    -4.295540    0.000000    0.000000    0.000000    
40.583683    88.889618    31.905830    -4.031446    -3.766506    89.995239    6.608288    -10.415474    -0.591172    -1.524497    -5.948996    -1.273343    -7.200926    27.201124    6.657271    8.211742    3.540770    7.077804    5.943581    7.471482    -10.881380    -15.326082    10.267270    13.464373    2.396562    -4.360505    2.796703    -6.452043    -4.339452    -1.412594    -9.731840    5.568286    4.704121    14.942994    11.312187    5.347838    -1.503769    -1.681208    -6.803989    0.447626    -1.760620    2.553368    3.655447    -0.159959    -5.891084    0.191503    0.016070    13.200750    -3.439875    6.570849    2.910774    0.000000    0.000000    0.000000    5.634209    1.017376    1.061447    0.540409    0.439743    -6.132295    2.620908    7.632199    -4.302259    0.000000    0.000000    0.000000    
40.580444    88.889732    31.907850    -4.036335    -3.764348    90.014107    6.620524    -10.427106    -0.604843    -1.536014    -5.918023    -1.289029    -7.274559    27.154646    6.674869    8.238069    3.555279    7.093534    5.941367    7.446776    -10.822982    -15.271439    10.220167    13.458714    2.325292    -4.315690    2.756853    -6.472000    -4.292420    -1.402800    -9.772453    5.539028    4.712882    14.958157    11.320537    5.379660    -1.537593    -1.605991    -6.832761    0.723649    -1.681173    2.625641    3.652120    -0.183406    -5.894299    0.193395    0.040251    13.190996    -3.330939    6.610251    2.890297    0.000000    0.000000    0.000000    5.633047    1.011325    1.047852    0.543372    0.435484    -6.122988    2.622782    7.628699    -4.315301    0.000000    0.000000    0.000000    
40.576000    88.889809    31.911749    -4.043107    -3.761671    90.029930    6.628443    -10.450594    -0.610208    -1.544619    -5.864312    -1.296163    -7.357624    27.090042    6.674406    8.286622    3.578682    7.092760    5.936034    7.405591    -10.781151    -15.264716    10.238896    13.454485    2.313155    -4.311685    2.738607    -6.453357    -4.288403    -1.395186    -9.797201    5.497701    4.703969    14.956697    11.340036    5.414857    -1.531384    -1.636871    -6.861581    0.694107    -1.712397    2.687636    3.653530    -0.208608    -5.888624    0.189180    0.059792    13.169142    -3.440252    6.560911    2.906478    0.000000    0.000000    0.000000    5.636206    0.969028    0.909337    0.537949    0.495218    -5.993047    2.624721    7.604909    -4.317073    0.000000    0.000000    0.000000    
